<?xml version="1.0" encoding="UTF-8"?>
<svg id="Calque_3" xmlns="http://www.w3.org/2000/svg" version="1.1" viewBox="0 0 728.5 728.5">
  <!-- Generator: Adobe Illustrator 29.2.1, SVG Export Plug-In . SVG Version: 2.1.0 Build 116)  -->
  <defs>
    <style>
      .st0, .st1, .st2 {
        fill: none;
      }

      .st3 {
        fill: #356e95;
      }

      .st1 {
        opacity: .2;
        stroke: #000;
        stroke-width: 25px;
      }

      .st1, .st2 {
        stroke-miterlimit: 10;
      }

      .st4 {
        fill: #fff;
      }

      .st2 {
        stroke: #c1c1c2;
        stroke-width: 60px;
      }
    </style>
  </defs>
  <circle class="st3" cx="364.3" cy="364.3" r="364.3"/>
  <circle class="st1" cx="364.3" cy="364.3" r="272.5"/>
  <g>
    <path class="st2" d="M599.3,127.6c16.9,17.3,32.3,36.6,45.9,57.7,13.1,20.3,23.9,41.4,32.4,63.1"/>
    <path class="st2" d="M686.8,449.5c-6.5,23.3-15.5,46.3-27,68.7-11.1,21.5-24,41.4-38.4,59.6"/>
    <path class="st2" d="M451.7,686.2c-23.5,6-47.9,9.7-73,10.9-24.1,1.2-47.8,0-70.9-3.4"/>
    <path class="st2" d="M129.2,600.9c-16.9-17.3-32.3-36.6-45.9-57.7s-23.9-41.4-32.4-63.1"/>
    <path class="st2" d="M41.8,279c6.5-23.3,15.5-46.3,27-68.7,11.1-21.5,24-41.4,38.4-59.6"/>
    <path class="st2" d="M276.8,42.3c23.5-6,47.9-9.7,73-10.9,24.1-1.2,47.8,0,70.9,3.4"/>
  </g>
  <g>
    <rect class="st0" x="177.7" y="214.7" width="379.1" height="279.1"/>
    <path class="st4" d="M344,413.9c3.7,0,6.9,3.2,6.9,6.9v43.5c0,3.7-3.2,6.9-6.9,6.9h-149c-3.7,0-6.9-3.2-6.9-6.9v-29.7c0-4.3,2-8.6,5.2-11.5l74.4-68.9c18.4-17.3,26.5-25.4,26.5-37.2s-8.1-19-21.6-19-25.4,8.9-25.4,25.4-1.4,6.6-4.9,6.6h-46.1c-3.2,0-5.2-1.4-5.2-6.6,0-55.6,43.8-81.3,82.4-81.3s79,28.2,79,74.9-27.7,61.7-46.4,79.6l-14.7,13.5c-1.7,1.2-.6,3.7,1.4,3.7h51.3Z"/>
    <path class="st4" d="M521.3,246.4c3.7,0,6.9,3.2,6.9,6.9v44.1c0,3.7-3.2,6.9-6.9,6.9h-71.2c-3.2,0-6.1,2.6-6.3,5.8l-1.4,10.1c-.3,2.9,2,4.9,4.9,4,6.6-2.3,13.5-2.9,23.3-2.9,42.1,0,73.2,32.3,73.2,74.4s-37.5,79.8-87,79.8-66.3-19.3-83.6-43.5c-2-2.9-.9-7.5,2-9.2l36.9-21.3c3.7-2.3,7.8-1.7,10.7,1.7,9.8,10.7,20.8,16.1,33.7,16.1s28.8-10.4,28.8-23.9-5.5-23.1-22.8-23.1-18.4,3.5-28.5,12.1c-3.5,2.9-7.8,3.5-11.8,1.4l-35.7-16.4c-3.7-1.7-5.8-5.8-5.2-9.8l19.3-106.4c.6-4,4-6.9,8.1-6.9h112.7Z"/>
  </g>
</svg>