<?xml version="1.0" encoding="UTF-8"?>
<svg id="Calque_6" xmlns="http://www.w3.org/2000/svg" version="1.1" viewBox="0 0 728.5 728.5">
  <!-- Generator: Adobe Illustrator 29.2.1, SVG Export Plug-In . SVG Version: 2.1.0 Build 116)  -->
  <defs>
    <style>
      .st0, .st1, .st2 {
        fill: none;
      }

      .st1 {
        opacity: .2;
        stroke: #000;
        stroke-width: 25px;
      }

      .st1, .st2 {
        stroke-miterlimit: 10;
      }

      .st3 {
        fill: #4f8b71;
      }

      .st4 {
        fill: #fff;
      }

      .st2 {
        stroke: #c1c1c2;
        stroke-width: 60px;
      }
    </style>
  </defs>
  <circle class="st3" cx="362.3" cy="364.3" r="364.3"/>
  <circle class="st1" cx="362.3" cy="364.3" r="272.5"/>
  <g>
    <path class="st2" d="M597.3,127.6c16.9,17.3,32.3,36.6,45.9,57.7,13.1,20.3,23.9,41.4,32.4,63.1"/>
    <path class="st2" d="M684.8,449.5c-6.5,23.3-15.5,46.3-27,68.7-11.1,21.5-24,41.4-38.4,59.6"/>
    <path class="st2" d="M449.7,686.2c-23.5,6-47.9,9.7-73,10.9-24.1,1.2-47.8,0-70.9-3.4"/>
    <path class="st2" d="M127.2,600.9c-16.9-17.3-32.3-36.6-45.9-57.7s-23.9-41.4-32.4-63.1"/>
    <path class="st2" d="M39.8,279c6.5-23.3,15.5-46.3,27-68.7,11.1-21.5,24-41.4,38.4-59.6"/>
    <path class="st2" d="M274.8,42.3c23.5-6,47.9-9.7,73-10.9,24.1-1.2,47.8,0,70.9,3.4"/>
  </g>
  <g>
    <rect class="st0" x="2" y="214.7" width="728.5" height="279.1"/>
    <path class="st4" d="M221.3,321.1c-3.5,1.2-6.6-1.2-6.6-4.6v-46.1c0-4,2.6-7.8,6.6-9.2l36-12.4c3.7-1.4,9.5-2.3,13.5-2.3h24.8c3.7,0,6.9,3.2,6.9,6.9v211c0,3.7-3.2,6.9-6.9,6.9h-43.5c-3.7,0-6.9-3.2-6.9-6.9v-145.8c0-2.9-2.9-4.9-5.5-3.7l-18.4,6.3Z"/>
    <path class="st4" d="M327.9,358.8c0-60,32-116.7,94.5-116.7s95.4,56.8,95.4,116.7-32.9,116.7-95.4,116.7-94.5-56.5-94.5-116.7ZM385.3,358.8c0,38,15.9,61.1,37.2,61.1s37.8-23.1,37.8-61.1-16.4-60.8-37.8-60.8-37.2,22.8-37.2,60.8Z"/>
  </g>
</svg>