<?xml version="1.0" encoding="UTF-8"?>
<svg id="Calque_2" xmlns="http://www.w3.org/2000/svg" version="1.1" viewBox="0 0 728.5 728.5">
  <!-- Generator: Adobe Illustrator 29.2.1, SVG Export Plug-In . SVG Version: 2.1.0 Build 116)  -->
  <defs>
    <style>
      .st0, .st1, .st2 {
        fill: none;
      }

      .st3 {
        fill: #343638;
      }

      .st1 {
        opacity: .2;
        stroke: #000;
        stroke-width: 25px;
      }

      .st1, .st2 {
        stroke-miterlimit: 10;
      }

      .st4 {
        fill: #fff;
      }

      .st2 {
        stroke: #c1c1c2;
        stroke-width: 60px;
      }
    </style>
  </defs>
  <circle class="st3" cx="364.3" cy="364.3" r="364.3"/>
  <circle class="st1" cx="364.3" cy="364.3" r="272.5"/>
  <g>
    <path class="st2" d="M599.3,127.6c16.9,17.3,32.3,36.6,45.9,57.7,13.1,20.3,23.9,41.4,32.4,63.1"/>
    <path class="st2" d="M686.8,449.5c-6.5,23.3-15.5,46.3-27,68.7-11.1,21.5-24,41.4-38.4,59.6"/>
    <path class="st2" d="M451.7,686.2c-23.5,6-47.9,9.7-73,10.9-24.1,1.2-47.8,0-70.9-3.4"/>
    <path class="st2" d="M129.2,600.9c-16.9-17.3-32.3-36.6-45.9-57.7s-23.9-41.4-32.4-63.1"/>
    <path class="st2" d="M41.8,279c6.5-23.3,15.5-46.3,27-68.7,11.1-21.5,24-41.4,38.4-59.6"/>
    <path class="st2" d="M276.8,42.3c23.5-6,47.9-9.7,73-10.9,24.1-1.2,47.8,0,70.9,3.4"/>
  </g>
  <g>
    <rect class="st0" x="95.6" y="227.7" width="545.1" height="279.1"/>
    <path class="st4" d="M152.3,320c-3,1-5.8-1-5.8-4v-40c0-3.5,2.2-6.8,5.8-8l31.2-10.8c3.2-1.2,8.2-2,11.8-2h21.5c3.2,0,6,2.8,6,6v183c0,3.2-2.8,6-6,6h-37.8c-3.2,0-6-2.8-6-6v-126.5c0-2.5-2.5-4.2-4.8-3.2l-16,5.5Z"/>
    <path class="st4" d="M244.8,352.7c0-52,27.8-101.2,82-101.2s82.8,49.2,82.8,101.2-28.5,101.2-82.8,101.2-82-49-82-101.2ZM294.6,352.7c0,33,13.8,53,32.2,53s32.8-20,32.8-53-14.2-52.7-32.8-52.7-32.2,19.8-32.2,52.7Z"/>
    <path class="st4" d="M425.1,352.7c0-52,27.8-101.2,82-101.2s82.8,49.2,82.8,101.2-28.5,101.2-82.8,101.2-82-49-82-101.2ZM474.8,352.7c0,33,13.8,53,32.2,53s32.8-20,32.8-53-14.2-52.7-32.8-52.7-32.2,19.8-32.2,52.7Z"/>
  </g>
</svg>